/* XPM */
static char *floor_xpm[] = {
"8 8 4 1",
"  c #FFFFFF",   /* White */
". c #90A4AE",   /* Light gray */
"- c #A0B1B9",   /* Another light gray */
"+ c #B0C1C9",   /* Another light gray */
".-+-.+--",
"+..-..+-",
"-.+.+..-",
".+--+.+.",
"--+-.--+",
"+-..-..-",
".+-+.-.+",
"-..+.+-."
};
