/* XPM */
static char *player_xpm[] = {
"8 8 4 1",
"  c #FFFFFF",
"p c #D50000",
"+ c #90a4ae",
"- c #a0b1b9",
"---p++++",
"-ppppp++"
"-pppppp+",
"pppppppp",
"pppppppp",
"+pppppp-",
"++ppppp-",
"+++pp---"
};